<svg width="24" height="25" viewBox="0 0 24 25" fill="none" xmlns="http://www.w3.org/2000/svg">
<g clip-path="url(#clip0_1974_3464)">
<path d="M12 2.51836C15.2063 2.51836 15.5859 2.53242 16.8469 2.58867C18.0188 2.64023 18.6516 2.83711 19.0734 3.00117C19.6313 3.2168 20.0344 3.4793 20.4516 3.89648C20.8734 4.31836 21.1313 4.7168 21.3469 5.27461C21.5109 5.69648 21.7078 6.33398 21.7594 7.50117C21.8156 8.7668 21.8297 9.14648 21.8297 12.348C21.8297 15.5543 21.8156 15.934 21.7594 17.1949C21.7078 18.3668 21.5109 18.9996 21.3469 19.4215C21.1313 19.9793 20.8688 20.3824 20.4516 20.7996C20.0297 21.2215 19.6313 21.4793 19.0734 21.6949C18.6516 21.859 18.0141 22.0559 16.8469 22.1074C15.5813 22.1637 15.2016 22.1777 12 22.1777C8.79375 22.1777 8.41406 22.1637 7.15313 22.1074C5.98125 22.0559 5.34844 21.859 4.92656 21.6949C4.36875 21.4793 3.96563 21.2168 3.54844 20.7996C3.12656 20.3777 2.86875 19.9793 2.65313 19.4215C2.48906 18.9996 2.29219 18.3621 2.24063 17.1949C2.18438 15.9293 2.17031 15.5496 2.17031 12.348C2.17031 9.1418 2.18438 8.76211 2.24063 7.50117C2.29219 6.3293 2.48906 5.69648 2.65313 5.27461C2.86875 4.7168 3.13125 4.31367 3.54844 3.89648C3.97031 3.47461 4.36875 3.2168 4.92656 3.00117C5.34844 2.83711 5.98594 2.64023 7.15313 2.58867C8.41406 2.53242 8.79375 2.51836 12 2.51836ZM12 0.357422C8.74219 0.357422 8.33438 0.371484 7.05469 0.427734C5.77969 0.483984 4.90313 0.690234 4.14375 0.985547C3.35156 1.29492 2.68125 1.70273 2.01563 2.37305C1.34531 3.03867 0.9375 3.70898 0.628125 4.49648C0.332812 5.26055 0.126563 6.13242 0.0703125 7.40742C0.0140625 8.6918 0 9.09961 0 12.3574C0 15.6152 0.0140625 16.023 0.0703125 17.3027C0.126563 18.5777 0.332812 19.4543 0.628125 20.2137C0.9375 21.0059 1.34531 21.6762 2.01563 22.3418C2.68125 23.0074 3.35156 23.4199 4.13906 23.7246C4.90313 24.0199 5.775 24.2262 7.05 24.2824C8.32969 24.3387 8.7375 24.3527 11.9953 24.3527C15.2531 24.3527 15.6609 24.3387 16.9406 24.2824C18.2156 24.2262 19.0922 24.0199 19.8516 23.7246C20.6391 23.4199 21.3094 23.0074 21.975 22.3418C22.6406 21.6762 23.0531 21.0059 23.3578 20.2184C23.6531 19.4543 23.8594 18.5824 23.9156 17.3074C23.9719 16.0277 23.9859 15.6199 23.9859 12.3621C23.9859 9.1043 23.9719 8.69648 23.9156 7.4168C23.8594 6.1418 23.6531 5.26523 23.3578 4.50586C23.0625 3.70898 22.6547 3.03867 21.9844 2.37305C21.3188 1.70742 20.6484 1.29492 19.8609 0.990234C19.0969 0.694922 18.225 0.488672 16.95 0.432422C15.6656 0.371484 15.2578 0.357422 12 0.357422Z" fill="#98A2B3"/>
<path d="M12 6.19336C8.59688 6.19336 5.83594 8.9543 5.83594 12.3574C5.83594 15.7605 8.59688 18.5215 12 18.5215C15.4031 18.5215 18.1641 15.7605 18.1641 12.3574C18.1641 8.9543 15.4031 6.19336 12 6.19336ZM12 16.3559C9.79219 16.3559 8.00156 14.5652 8.00156 12.3574C8.00156 10.1496 9.79219 8.35898 12 8.35898C14.2078 8.35898 15.9984 10.1496 15.9984 12.3574C15.9984 14.5652 14.2078 16.3559 12 16.3559Z" fill="#98A2B3"/>
<path d="M19.8469 5.94883C19.8469 6.74571 19.2 7.38789 18.4078 7.38789C17.6109 7.38789 16.9688 6.74102 16.9688 5.94883C16.9688 5.15195 17.6156 4.50977 18.4078 4.50977C19.2 4.50977 19.8469 5.15664 19.8469 5.94883Z" fill="#98A2B3"/>
</g>
<defs>
<clipPath id="clip0_1974_3464">
<rect width="24" height="24" fill="white" transform="translate(0 0.357422)"/>
</clipPath>
</defs>
</svg>
