<svg width="24" height="25" viewBox="0 0 24 25" fill="none" xmlns="http://www.w3.org/2000/svg">
<path fill-rule="evenodd" clip-rule="evenodd" d="M12 0.357422C5.37527 0.357422 0 5.73269 0 12.3574C0 18.9822 5.37527 24.3574 12 24.3574C18.6117 24.3574 24 18.9822 24 12.3574C24 5.73269 18.6117 0.357422 12 0.357422ZM19.9262 5.88887C21.3579 7.63291 22.217 9.8585 22.243 12.2663C21.9046 12.2013 18.5206 11.5114 15.1106 11.9409C15.0325 11.7717 14.9675 11.5895 14.8894 11.4073C14.6811 10.9128 14.4469 10.4052 14.2126 9.9236C17.9869 8.38782 19.705 6.17521 19.9262 5.88887ZM12 2.12749C14.603 2.12749 16.9848 3.10363 18.7939 4.7045C18.6117 4.9648 17.0629 7.03421 13.4186 8.4008C11.7397 5.3162 9.87855 2.79126 9.5922 2.4008C10.3601 2.21859 11.1671 2.12749 12 2.12749ZM7.63995 3.09061C7.91325 3.45503 9.73538 5.993 11.4404 9.0125C6.65076 10.288 2.42083 10.262 1.96529 10.262C2.62906 7.08627 4.77657 4.44419 7.63995 3.09061ZM1.74404 12.3705C1.74404 12.2663 1.74404 12.1622 1.74404 12.0581C2.18655 12.0711 7.15835 12.1362 12.2733 10.6004C12.5727 11.173 12.846 11.7587 13.1063 12.3444C12.9761 12.3834 12.8329 12.4225 12.7028 12.4615C7.41865 14.1665 4.60738 18.8259 4.3731 19.2164C2.7462 17.4073 1.74404 14.9995 1.74404 12.3705ZM12 22.6134C9.6312 22.6134 7.44469 21.8064 5.71366 20.4528C5.89588 20.0754 7.97827 16.0668 13.757 14.0494C13.783 14.0364 13.7961 14.0364 13.8221 14.0234C15.2668 17.7587 15.8525 20.8953 16.0087 21.7934C14.7722 22.327 13.4186 22.6134 12 22.6134ZM17.7137 20.8563C17.6096 20.2316 17.0629 17.2381 15.7223 13.5548C18.9371 13.0472 21.7484 13.8802 22.0998 13.9974C21.6573 16.8477 20.0174 19.3075 17.7137 20.8563Z" fill="#98A2B3"/>
</svg>
