<svg width="24" height="25" viewBox="0 0 24 25" fill="none" xmlns="http://www.w3.org/2000/svg">
<path d="M7.55016 22.1081C16.6045 22.1081 21.5583 14.6049 21.5583 8.10002C21.5583 7.88908 21.5536 7.67345 21.5442 7.46251C22.5079 6.76562 23.3395 5.90241 24 4.91345C23.1025 5.31275 22.1496 5.57354 21.1739 5.68689C22.2013 5.07106 22.9705 4.10363 23.3391 2.96392C22.3726 3.53671 21.3156 3.94077 20.2134 4.15876C19.4708 3.36972 18.489 2.84727 17.4197 2.67221C16.3504 2.49714 15.2532 2.6792 14.2977 3.19025C13.3423 3.7013 12.5818 4.51286 12.1338 5.49947C11.6859 6.48607 11.5754 7.59277 11.8195 8.64845C9.86249 8.55024 7.94794 8.04186 6.19998 7.15625C4.45203 6.27065 2.90969 5.02759 1.67297 3.50767C1.0444 4.5914 0.852057 5.8738 1.13503 7.09425C1.418 8.31469 2.15506 9.3816 3.19641 10.0781C2.41463 10.0533 1.64998 9.84283 0.965625 9.46408V9.52501C0.964925 10.6623 1.3581 11.7647 2.07831 12.6449C2.79852 13.5251 3.80132 14.1287 4.91625 14.3531C4.19206 14.5513 3.43198 14.5802 2.69484 14.4375C3.00945 15.4156 3.62157 16.271 4.44577 16.8845C5.26997 17.4979 6.26512 17.8388 7.29234 17.8594C5.54842 19.2293 3.39417 19.9723 1.17656 19.9688C0.783287 19.9682 0.390399 19.9441 0 19.8966C2.25286 21.3419 4.87353 22.1095 7.55016 22.1081Z" fill="#98A2B3"/>
</svg>
