<svg width="24" height="25" viewBox="0 0 24 25" fill="none" xmlns="http://www.w3.org/2000/svg">
<path fill-rule="evenodd" clip-rule="evenodd" d="M8.25 2.35742C7.51349 2.35742 6.81155 2.64371 6.29747 3.14637C5.78414 3.64829 5.5 4.32419 5.5 5.02409C5.5 5.72399 5.78414 6.39989 6.29747 6.9018C6.81155 7.40447 7.51349 7.69075 8.25 7.69075H11V2.35742H8.25ZM13 2.35742V7.69075H15.75C16.1142 7.69075 16.4744 7.62058 16.8097 7.48478C17.145 7.34899 17.4482 7.15053 17.7025 6.9018C17.9569 6.65313 18.1574 6.35913 18.2938 6.03719C18.4301 5.7153 18.5 5.37112 18.5 5.02409C18.5 4.67706 18.4301 4.33287 18.2938 4.01098C18.1574 3.68904 17.9569 3.39505 17.7025 3.14637C17.4482 2.89764 17.145 2.69919 16.8097 2.5634C16.4744 2.42759 16.1142 2.35742 15.75 2.35742H13ZM18.6884 8.69076C18.8324 8.57933 18.9702 8.45953 19.1008 8.33182C19.5429 7.89953 19.8948 7.38511 20.1353 6.81733C20.3759 6.2495 20.5 5.64008 20.5 5.02409C20.5 4.40809 20.3759 3.79868 20.1353 3.23084C19.8948 2.66306 19.5429 2.14864 19.1008 1.71636C18.6587 1.28412 18.1351 0.942406 17.5605 0.709663C16.9858 0.476934 16.3707 0.357422 15.75 0.357422H8.25C6.99738 0.357422 5.79167 0.843753 4.89923 1.71636C4.00603 2.5897 3.5 3.77907 3.5 5.02409C3.5 6.26911 4.00603 7.45847 4.89923 8.33182C5.03021 8.45989 5.16794 8.57964 5.31158 8.69075C5.16794 8.80187 5.03021 8.92162 4.89923 9.04969C4.00603 9.92304 3.5 11.1124 3.5 12.3574C3.5 13.6024 4.00603 14.7918 4.89923 15.6651C5.03022 15.7932 5.16795 15.913 5.31159 16.0241C5.16795 16.1352 5.03022 16.2549 4.89923 16.383C4.00603 17.2564 3.5 18.4457 3.5 19.6907C3.5 20.9358 4.00603 22.1251 4.89923 22.9985C5.79167 23.8711 6.99738 24.3574 8.25 24.3574C9.5026 24.3574 10.7083 23.8711 11.6008 22.9985C12.494 22.1251 13 20.9358 13 19.6907V16.1625C13.2922 16.3663 13.6073 16.5373 13.9395 16.6718C14.5142 16.9046 15.1293 17.0241 15.75 17.0241C16.3707 17.0241 16.9858 16.9046 17.5605 16.6718C18.1351 16.4391 18.6587 16.0974 19.1008 15.6651C19.5429 15.2328 19.8948 14.7184 20.1353 14.1506C20.3759 13.5828 20.5 12.9734 20.5 12.3574C20.5 11.7414 20.3759 11.132 20.1353 10.5642C19.8948 9.9964 19.5429 9.48198 19.1008 9.04969C18.9702 8.92198 18.8324 8.80218 18.6884 8.69076ZM11 15.0241V9.69075H8.25C7.51349 9.69075 6.81155 9.97704 6.29747 10.4797C5.78414 10.9816 5.5 11.6575 5.5 12.3574C5.5 13.0573 5.78414 13.7332 6.29747 14.2351C6.81155 14.7378 7.51349 15.0241 8.25 15.0241H11ZM11 17.0241H8.25C7.51349 17.0241 6.81155 17.3104 6.29747 17.813C5.78414 18.3149 5.5 18.9908 5.5 19.6907C5.5 20.3906 5.78414 21.0665 6.29747 21.5685C6.81155 22.0711 7.51349 22.3574 8.25 22.3574C8.98651 22.3574 9.6884 22.0711 10.2025 21.5685C10.7159 21.0665 11 20.3906 11 19.6907V17.0241ZM15.75 9.69075C15.3858 9.69075 15.0256 9.76092 14.6903 9.89673C14.355 10.0325 14.0518 10.231 13.7975 10.4797C13.5431 10.7284 13.3426 11.0224 13.2062 11.3443C13.0699 11.6662 13 12.0104 13 12.3574C13 12.7044 13.0699 13.0486 13.2062 13.3705C13.3426 13.6924 13.5431 13.9864 13.7975 14.2351C14.0518 14.4838 14.355 14.6823 14.6903 14.8181C15.0256 14.9539 15.3858 15.0241 15.75 15.0241C16.1142 15.0241 16.4744 14.9539 16.8097 14.8181C17.145 14.6823 17.4482 14.4838 17.7025 14.2351C17.9569 13.9864 18.1574 13.6924 18.2938 13.3705C18.4301 13.0486 18.5 12.7044 18.5 12.3574C18.5 12.0104 18.4301 11.6662 18.2938 11.3443C18.1574 11.0224 17.9569 10.7284 17.7025 10.4797C17.4482 10.231 17.145 10.0325 16.8097 9.89673C16.4744 9.76092 16.1142 9.69075 15.75 9.69075Z" fill="#98A2B3"/>
</svg>
