<svg width="24" height="25" viewBox="0 0 24 25" fill="none" xmlns="http://www.w3.org/2000/svg">
<g clip-path="url(#clip0_1974_3461)">
<path d="M22.2234 0.357422H1.77187C0.792187 0.357422 0 1.13086 0 2.08711V22.623C0 23.5793 0.792187 24.3574 1.77187 24.3574H22.2234C23.2031 24.3574 24 23.5793 24 22.6277V2.08711C24 1.13086 23.2031 0.357422 22.2234 0.357422ZM7.12031 20.809H3.55781V9.35273H7.12031V20.809ZM5.33906 7.7918C4.19531 7.7918 3.27188 6.86836 3.27188 5.7293C3.27188 4.59023 4.19531 3.6668 5.33906 3.6668C6.47813 3.6668 7.40156 4.59023 7.40156 5.7293C7.40156 6.86367 6.47813 7.7918 5.33906 7.7918ZM20.4516 20.809H16.8937V15.2402C16.8937 13.9137 16.8703 12.2027 15.0422 12.2027C13.1906 12.2027 12.9094 13.6512 12.9094 15.1465V20.809H9.35625V9.35273H12.7687V10.9184H12.8156C13.2891 10.0184 14.4516 9.0668 16.1813 9.0668C19.7859 9.0668 20.4516 11.4387 20.4516 14.523V20.809V20.809Z" fill="#98A2B3"/>
</g>
<defs>
<clipPath id="clip0_1974_3461">
<rect width="24" height="24" fill="white" transform="translate(0 0.357422)"/>
</clipPath>
</defs>
</svg>
